Coordinates
version=1
nRows=16
nColumns=40
inDegrees=yes

Units are S.I. units (second, meters, Newtons, ...)
Angles are in degrees.

endheader
time	pelvis_tilt	pelvis_list	pelvis_rotation	pelvis_tx	pelvis_ty	pelvis_tz	hip_flexion_r	hip_adduction_r	hip_rotation_r	knee_angle_r	knee_angle_r_beta	ankle_angle_r	subtalar_angle_r	mtp_angle_r	hip_flexion_l	hip_adduction_l	hip_rotation_l	knee_angle_l	knee_angle_l_beta	ankle_angle_l	subtalar_angle_l	mtp_angle_l	lumbar_extension	lumbar_bending	lumbar_rotation	arm_flex_r	arm_add_r	arm_rot_r	elbow_flex_r	pro_sup_r	wrist_flex_r	wrist_dev_r	arm_flex_l	arm_add_l	arm_rot_l	elbow_flex_l	pro_sup_l	wrist_flex_l	wrist_dev_l
     16.73000000	     -1.69776418	     -3.88733829	     -1.65226307	      1.03054415	      0.93514808	      0.44136231	     29.59572946	     -5.64368818	     -5.47509115	     64.22144786	     64.22144786	      1.93786159	    -10.37799476	     -1.97291159	     12.88175011	     -4.30114123	     -8.21931679	     22.00961383	     22.00961383	     13.49315876	     -6.94004776	     -1.10691998	    -11.88442149	      4.27939918	      0.31878897	     -5.09034684	    -15.64227328	     -9.20480136	     31.83605423	     45.77523548	      0.00000000	      0.00000000	      6.21736484	    -13.87972352	     -4.08804341	     49.11376321	     45.97236362	      0.00000000	      0.00000000
     16.74314286	     -1.89184141	     -3.86896303	     -1.80172917	      1.02952050	      0.93555196	      0.44139993	     30.18480930	     -5.48901942	     -5.76640236	     61.94301806	     61.94301806	      2.27866493	    -10.55139386	     -1.82274725	     12.39897819	     -4.27863819	     -8.50417026	     21.37240031	     21.37240031	     13.62588599	     -6.54714839	     -1.12910111	    -11.79966992	      4.12781716	      0.03290081	     -5.58066726	    -15.14054919	     -9.04191279	     31.67020186	     45.76819423	      0.00000000	      0.00000000	      6.89856196	    -14.12633265	     -4.16219340	     49.42440290	     45.99358461	      0.00000000	      0.00000000
     16.75628571	     -1.88540633	     -3.82234364	     -1.99098854	      1.02866133	      0.93618418	      0.44148722	     30.41308769	     -5.29616952	     -5.95363792	     59.43380030	     59.43380030	      2.54371208	    -10.73765782	     -1.73930241	     11.61791221	     -4.27403409	     -9.13407813	     20.63260388	     20.63260388	     13.80307327	     -5.67089453	     -1.36486154	    -11.95051052	      3.92718960	     -0.03176978	     -6.21073582	    -14.80584029	     -8.77986064	     31.55114450	     45.75355110	      0.00000000	      0.00000000	      7.57717077	    -14.26850751	     -4.18348803	     49.93282407	     46.01612356	      0.00000000	      0.00000000
     16.76942857	     -1.95571729	     -3.78741006	     -2.16479510	      1.02777703	      0.93651106	      0.44169416	     30.61927047	     -5.10027805	     -6.18851971	     56.75737005	     56.75737005	      2.73736872	    -10.82984847	     -1.74261949	     11.03709638	     -4.34012330	     -9.91892615	     20.10702385	     20.10702385	     13.99343523	     -4.57838657	     -1.89190778	    -12.01276727	      3.73713645	     -0.09287330	     -6.94632552	    -14.41960888	     -8.29100643	     31.74070478	     45.71344700	      0.00000000	      0.00000000	      8.24286106	    -14.53216460	     -4.09145986	     50.61300755	     46.03840186	      0.00000000	      0.00000000
     16.78257143	     -2.14256237	     -3.77171724	     -2.28073803	      1.02680348	      0.93656881	      0.44186572	     30.83514700	     -4.90762079	     -6.47639929	     53.91150607	     53.91150607	      2.99743182	    -10.70395013	     -1.44690960	     10.66332293	     -4.32652385	    -10.17154613	     19.65865468	     19.65865468	     14.15116846	     -4.22963067	     -2.02182441	    -11.89349277	      3.59558636	     -0.36693158	     -7.42434031	    -14.04501147	     -8.08448766	     31.76929139	     45.69614386	      0.00000000	      0.00000000	      8.81125242	    -14.76745594	     -4.08912627	     50.98384122	     46.05292638	      0.00000000	      0.00000000
     16.79571429	     -2.14363103	     -3.71708104	     -2.45489318	      1.02600046	      0.93679984	      0.44222693	     30.74286991	     -4.68358154	     -6.60802068	     50.88107090	     50.88107090	      3.21965053	    -10.49619119	     -1.16647397	      9.98641219	     -4.31537176	    -10.77369337	     19.06555826	     19.06555826	     14.29481523	     -3.41081424	     -2.49056613	    -12.02950887	      3.36726186	     -0.33987916	     -8.09215411	    -13.77519468	     -7.45013287	     32.20384583	     45.63822985	      0.00000000	      0.00000000	      9.45186455	    -14.97960231	     -3.90667378	     51.67650901	     46.06788156	      0.00000000	      0.00000000
     16.80885714	     -2.33003731	     -3.68747674	     -2.58379029	      1.02507950	      0.93659657	      0.44262280	     30.76351620	     -4.45792383	     -6.80140700	     47.72085394	     47.72085394	      3.43042010	    -10.05481916	     -0.78201431	      9.67696615	     -4.28340262	    -10.94963724	     18.72055628	     18.72055628	     14.45160255	     -3.26403870	     -2.62211376	    -11.93383046	      3.21381374	     -0.54752234	     -8.42143702	    -13.44250838	     -7.21475044	     32.30716999	     45.61759037	      0.00000000	      0.00000000	     10.02351239	    -15.18086142	     -3.89251568	     52.00713823	     46.08058277	      0.00000000	      0.00000000
     16.82200000	     -2.33950083	     -3.64822822	     -2.74526570	      1.02433887	      0.93658800	      0.44316701	     30.47332145	     -4.21030309	     -6.91922522	     44.39748979	     44.39748979	      3.64180029	     -9.36865930	     -0.43439821	      9.08141250	     -4.23033456	    -11.19968186	     18.22870927	     18.22870927	     14.58855756	     -3.02490533	     -2.86367776	    -12.05125563	      3.03625831	     -0.54862377	     -8.76487162	    -13.22582641	     -6.77844857	     32.57829155	     45.57928775	      0.00000000	      0.00000000	     10.65379143	    -15.29632446	     -3.81253397	     52.43793053	     46.09309458	      0.00000000	      0.00000000
     16.83514286	     -2.43311548	     -3.60211655	     -2.91876653	      1.02356759	      0.93637167	      0.44382254	     30.19618341	     -3.96021434	     -7.03341666	     40.97458065	     40.97458065	      3.75947638	     -8.41736673	     -0.10375426	      8.62843259	     -4.16839311	    -11.35763028	     17.82010225	     17.82010225	     14.69630610	     -2.95891230	     -3.12250546	    -12.07185892	      2.85551537	     -0.54645103	     -9.01762680	    -13.00826800	     -6.30412668	     32.89567944	     45.53785778	      0.00000000	      0.00000000	     11.26168534	    -15.39550194	     -3.73426071	     52.78597214	     46.10448851	      0.00000000	      0.00000000
     16.84828571	     -2.54222438	     -3.54283482	     -3.06466984	      1.02287109	      0.93604083	      0.44455627	     29.85483121	     -3.70792815	     -7.12463987	     37.50187713	     37.50187713	      3.85891155	     -7.24501935	      0.22035656	      8.22016915	     -4.08843518	    -11.42939506	     17.46094131	     17.46094131	     14.80319536	     -3.01339327	     -3.36795069	    -12.06415834	      2.67883599	     -0.55200138	     -9.16860673	    -12.85969916	     -5.85815850	     33.19580121	     45.49985941	      0.00000000	      0.00000000	     11.83208506	    -15.42559743	     -3.66437424	     53.05485026	     46.11418150	      0.00000000	      0.00000000
     16.86142857	     -2.77137835	     -3.43071499	     -3.26297890	      1.02223328	      0.93544290	      0.44552883	     29.61230921	     -3.44187854	     -7.11027196	     34.08101647	     34.08101647	      3.89332076	     -5.98067911	      0.62619815	      7.97984011	     -3.98045019	    -11.53265756	     17.18978249	     17.18978249	     14.91961446	     -3.13313168	     -3.54469771	    -11.89902824	      2.43761701	     -0.52340633	     -9.13646632	    -12.59786012	     -5.54462986	     33.43758877	     45.47243038	      0.00000000	      0.00000000	     12.36632244	    -15.49636880	     -3.64600636	     53.27104188	     46.12425506	      0.00000000	      0.00000000
     16.87457143	     -2.95423370	     -3.21505457	     -3.46304645	      1.02159914	      0.93476981	      0.44647308	     29.34413837	     -3.27758255	     -7.01885217	     30.84691818	     30.84691818	      3.83230915	     -4.64952869	      1.08708465	      7.74554956	     -3.76449340	    -11.66529663	     17.01574834	     17.01574834	     15.06740369	     -3.27634741	     -3.72646263	    -11.78707774	      2.08117982	     -0.50235124	     -9.00506784	    -12.42800946	     -5.30569514	     33.65573837	     45.45100739	      0.00000000	      0.00000000	     12.88437537	    -15.52829218	     -3.63329851	     53.45979263	     46.13302009	      0.00000000	      0.00000000
     16.88771429	     -2.83373040	     -3.29144142	     -3.59682498	      1.02158556	      0.93473894	      0.44734293	     28.41245651	     -3.01121707	     -7.73075591	     27.42323435	     27.42323435	      3.75434888	     -2.11452846	      1.20239383	      6.70761876	     -3.63037023	    -11.09458060	     15.90417401	     15.90417401	     14.12563337	     -4.51453736	     -5.69573568	    -11.99493705	      2.14888385	     -0.23028343	     -9.62320196	    -13.22467376	     -1.33254476	     35.72542543	     45.17207490	      0.00000000	      0.00000000	     13.70232391	    -15.24169503	     -3.38659863	     52.89576483	     46.17741367	      0.00000000	      0.00000000
     16.90085714	     -2.92460332	     -3.25321039	     -3.76551815	      1.02146970	      0.93425863	      0.44853867	     27.83996885	     -2.68052738	     -7.98330895	     24.42280024	     24.42280024	      3.58225484	     -0.40613834	      1.89313924	      6.26440200	     -3.61762140	    -11.23959221	     15.62507707	     15.62507707	     14.34900951	     -4.44246932	     -5.80441483	    -11.95281445	      2.04701379	     -0.19397320	     -9.25368982	    -13.16883204	     -1.11071342	     35.86673652	     45.16508360	      0.00000000	      0.00000000	     14.01519755	    -15.19119481	     -3.39630079	     53.12555220	     46.19156197	      0.00000000	      0.00000000
     16.91400000	     -3.01153813	     -3.15045006	     -3.91349930	      1.02157333	      0.93372600	      0.44973990	     27.32389732	     -2.48731971	     -8.49615949	     21.88961873	     21.88961873	      3.54850764	      1.58880440	      2.86606422	      5.73798786	     -3.51211965	    -11.35736442	     15.19799656	     15.19799656	     14.45820519	     -4.33900461	     -6.03832144	    -11.89069485	      1.89933701	     -0.16850971	     -8.86631990	    -13.16700199	     -0.66292344	     36.07167733	     45.15167403	      0.00000000	      0.00000000	     14.28004900	    -15.09648278	     -3.46488351	     53.21300985	     46.21619137	      0.00000000	      0.00000000
     16.92714286	     -3.09090296	     -3.12817122	     -4.03714083	      1.02186460	      0.93319274	      0.45108330	     26.76960970	     -2.15434403	     -8.90975300	     19.66425660	     19.66425660	      3.31218987	      2.90769883	      3.71576276	      5.25316375	     -3.52053816	    -11.46255148	     14.90760437	     14.90760437	     14.63607879	     -4.30986296	     -6.23734073	    -11.81197020	      1.85605369	     -0.15071835	     -8.39906206	    -13.19894767	     -0.47587902	     36.32140177	     45.14324401	      0.00000000	      0.00000000	     14.49624734	    -14.98086368	     -3.46291416	     53.25422596	     46.22534208	      0.00000000	      0.00000000
